<svg width="11" height="11" viewBox="0 0 11 11" fill="none" xmlns="http://www.w3.org/2000/svg">
<path fill-rule="evenodd" clip-rule="evenodd" d="M5.5 0C2.46125 0 0 2.46125 0 5.5C0 7.93375 1.57438 9.98938 3.76063 10.7181C4.03562 10.7662 4.13875 10.6012 4.13875 10.4569C4.13875 10.3263 4.13188 9.89312 4.13188 9.4325C2.75 9.68687 2.3925 9.09562 2.2825 8.78625C2.22063 8.62812 1.9525 8.14 1.71875 8.00937C1.52625 7.90625 1.25125 7.65188 1.71187 7.645C2.145 7.63812 2.45438 8.04375 2.5575 8.20875C3.0525 9.04062 3.84313 8.80687 4.15938 8.6625C4.2075 8.305 4.35188 8.06437 4.51 7.92687C3.28625 7.78937 2.0075 7.315 2.0075 5.21125C2.0075 4.61312 2.22063 4.11812 2.57125 3.73312C2.51625 3.59563 2.32375 3.03187 2.62625 2.27562C2.62625 2.27562 3.08687 2.13125 4.13875 2.83938C4.57875 2.71563 5.04625 2.65375 5.51375 2.65375C5.98125 2.65375 6.44875 2.71563 6.88875 2.83938C7.94063 2.12438 8.40125 2.27562 8.40125 2.27562C8.70375 3.03187 8.51125 3.59563 8.45625 3.73312C8.80688 4.11812 9.02 4.60625 9.02 5.21125C9.02 7.32187 7.73438 7.78937 6.51062 7.92687C6.71 8.09875 6.88188 8.42875 6.88188 8.94437C6.88188 9.68 6.875 10.2712 6.875 10.4569C6.875 10.6012 6.97813 10.7731 7.25313 10.7181C8.34496 10.3495 9.29371 9.64777 9.96585 8.71171C10.638 7.77565 10.9997 6.65238 11 5.5C11 2.46125 8.53875 0 5.5 0Z" fill="#6A6A6A"/>
</svg>
