<svg width="11" height="11" viewBox="0 0 11 11" fill="none" xmlns="http://www.w3.org/2000/svg">
<path d="M2.15559 0C0.970184 0 0 0.970162 0 2.15559V8.84476C0 10.0302 0.970162 11 2.15559 11H8.84476C10.0302 11 11 10.0302 11 8.84476V2.15559C11 0.970184 10.0302 0 8.84476 0H2.15559ZM2.69775 1.81522C3.26613 1.81522 3.61622 2.18835 3.62703 2.67882C3.62703 3.15847 3.26611 3.54208 2.68676 3.54208H2.67609C2.11854 3.54208 1.75816 3.15849 1.75816 2.67882C1.75816 2.18836 2.12944 1.81522 2.69774 1.81522H2.69775ZM7.59577 4.10763C8.68887 4.10763 9.5083 4.82209 9.5083 6.35741V9.2236H7.84709V6.54958C7.84709 5.87762 7.60667 5.41919 7.00549 5.41919C6.54654 5.41919 6.27298 5.72818 6.15288 6.02667C6.109 6.13346 6.09822 6.28261 6.09822 6.432V9.2236H4.43701C4.43701 9.2236 4.45881 4.69388 4.43701 4.22486H6.09856V4.93273C6.31931 4.59213 6.71419 4.10762 7.59577 4.10762V4.10763ZM1.85615 4.22522H3.51736V9.22363H1.85615V4.22522V4.22522Z" fill="#6A6A6A"/>
</svg>
